<!-- Generated by IcoMoon.io -->
<svg version="1.1" xmlns="http://www.w3.org/2000/svg" width="1024" height="1024" viewBox="0 0 1024 1024">
<title></title>
<g id="icomoon-ignore">
</g>
<path fill="#000" d="M298.667 1024c-0.073 0-0.16 0.001-0.247 0.001-11.721 0-22.338-4.726-30.049-12.377l0.003 0.003c-7.795-7.733-12.621-18.45-12.621-30.293s4.826-22.56 12.618-30.291l348.59-348.59c23.13-23.158 37.434-55.135 37.434-90.453s-14.304-67.296-37.435-90.455l-348.586-348.586c-7.753-7.753-12.548-18.463-12.548-30.293 0-23.661 19.181-42.841 42.841-42.841 11.83 0 22.541 4.795 30.293 12.548l348.587 348.587c38.72 38.625 62.675 92.035 62.675 151.040s-23.955 112.415-62.67 151.036l-348.591 348.591c-7.709 7.648-18.326 12.374-30.047 12.374-0.087 0-0.173 0-0.26-0.001h0.013z"></path>
</svg>
