<svg width="130" height="130" viewBox="0 0 130 130" fill="none" xmlns="http://www.w3.org/2000/svg">
<g clip-path="url(#clip0_6_57)">
<path d="M47.4546 94.3985L31.9546 93.5C31.9546 93.5 29.8067 88 31.9546 88C32.9546 88 34.4546 88 34.4546 88C34.3466 82.2733 34.2105 72.624 34.2372 66M47.4546 94.3985L66.4546 95.5M47.4546 94.3985L13.6573 130M34.2372 66C34.2516 62.4065 34.314 59.7034 34.4546 59C34.6835 57.8557 35.687 51.2015 36.7536 44L65.4546 16.5M34.2372 66L65.4546 111.5L96.1721 66M34.2372 66L24 44M34.2372 66L65.4546 65.75M65.4546 65.75V16.5M65.4546 65.75L96.1721 66M65.4546 16.5L93.6557 44C94.7222 51.2015 95.7257 57.8557 95.9546 59C96.0953 59.7034 96.1576 62.4065 96.1721 66M82.9546 94.3985L98.4546 93.5C98.4546 93.5 100.602 88 98.4546 88C97.4546 88 95.9546 88 95.9546 88C96.0626 82.2733 96.1987 72.624 96.1721 66M82.9546 94.3985L63.9546 95.5M82.9546 94.3985L116.752 130M96.1721 66L107.5 44M0.5 44H24M129.5 44H107.5M24 44H107.5" stroke="white" stroke-width="1.33"/>
</g>
<rect x="0.5" y="0.5" width="129" height="129" stroke="white"/>
<defs>
<clipPath id="clip0_6_57">
<rect width="130" height="130" fill="white"/>
</clipPath>
</defs>
</svg>
