<svg width="130" height="130" viewBox="0 0 130 130" fill="none" xmlns="http://www.w3.org/2000/svg">
<g clip-path="url(#clip0_6_72)">
<path d="M66.4546 24C66.0634 24 65.6457 23.9993 65.2046 23.999M34.4546 88C34.4546 88 32.9546 88 31.9546 88C29.8067 88 31.9546 93.5 31.9546 93.5L47.4546 94.3985M34.4546 88H66.4546M34.4546 88C34.3466 82.2733 34.2105 72.624 34.2371 66M47.4546 94.3985L66.4546 95.5M47.4546 94.3985L43.7653 99M43.7653 99H66.4546M43.7653 99L40.1573 103.5M43.7653 99H0.5M40.1573 103.5L17.5 129.5M40.1573 103.5H66.4546M34.4546 59C34.3139 59.7034 34.2516 62.4065 34.2371 66M34.4546 59C34.6835 57.8557 35.687 51.2015 36.7535 44M34.4546 59V0.5M34.2371 66H65.4546M34.2371 66H0.5M66.4546 66H65.4546M36.7535 44C37.5512 38.6141 38.3841 32.9222 38.9546 29C45.7213 24.113 58.3173 23.9955 65.2046 23.999M36.7535 44H65.4546V55V66M36.7535 44H0.5M63.9546 24C64.3458 24 64.7635 23.9993 65.2046 23.999M95.9546 88C95.9546 88 97.4546 88 98.4546 88C100.602 88 98.4546 93.5 98.4546 93.5L82.9546 94.3985M95.9546 88H63.9546M95.9546 88C96.0626 82.2733 96.1987 72.624 96.1721 66M82.9546 94.3985L63.9546 95.5M82.9546 94.3985L86.6439 99M86.6439 99H63.9546M86.6439 99L90.2519 103.5M86.6439 99H129.5M90.2519 103.5L112 129.5M90.2519 103.5H63.9546M95.9546 59C96.0953 59.7034 96.1576 62.4065 96.1721 66M95.9546 59C95.7257 57.8557 94.7222 51.2015 93.6557 44M95.9546 59V0.5M96.1721 66H65.4546M96.1721 66H129.5M63.9546 66H65.4546M93.6557 44C92.858 38.6141 92.0251 32.9222 91.4546 29C84.6879 24.113 72.0919 23.9955 65.2046 23.999M93.6557 44H64.9546M93.6557 44H129.5M65.4546 66L66.4546 129.5M65.2046 23.999L64.9546 0.5" stroke="white" stroke-width="1.33"/>
</g>
<rect x="0.665" y="0.665" width="128.67" height="128.67" stroke="white" stroke-width="1.33"/>
<defs>
<clipPath id="clip0_6_72">
<rect width="130" height="130" fill="white"/>
</clipPath>
</defs>
</svg>
