<svg width="130" height="130" viewBox="0 0 130 130" fill="none" xmlns="http://www.w3.org/2000/svg">
<path d="M66.4546 24C59.9546 24 46.1546 23.8 38.9546 29C38.3841 32.9222 37.5512 38.6141 36.7536 44M34.4546 88C34.4546 88 32.9546 88 31.9546 88C29.8068 88 31.9546 93.5 31.9546 93.5L47.4546 94.3985M34.4546 88H66.4546M34.4546 88C34.3466 82.2733 34.2105 72.624 34.2372 66M47.4546 94.3985L66.4546 95.5M47.4546 94.3985L43.7653 99M43.7653 99H66.4546M43.7653 99L40.1573 103.5M40.1573 103.5H66.4546M40.1573 103.5L35.5507 109M25.5 121L30.5254 115M34.2372 66C34.2516 62.4065 34.314 59.7034 34.4546 59C34.6835 57.8557 35.687 51.2015 36.7536 44M34.2372 66H65.4546M66.4546 66H65.4546M36.7536 44H65.4546V66M63.9546 24C70.4546 24 84.2546 23.8 91.4546 29C92.0251 32.9222 92.858 38.6141 93.6557 44M95.9546 88C95.9546 88 97.4546 88 98.4546 88C100.603 88 98.4546 93.5 98.4546 93.5L82.9546 94.3985M95.9546 88H63.9546M95.9546 88C96.0627 82.2733 96.1987 72.624 96.1721 66M82.9546 94.3985L63.9546 95.5M82.9546 94.3985L86.644 99M86.644 99H63.9546M86.644 99L90.252 103.5M90.252 103.5H63.9546M90.252 103.5L94.7299 109M104.5 121L99.615 115M96.1721 66C96.1576 62.4065 96.0953 59.7034 95.9546 59C95.7258 57.8557 94.7223 51.2015 93.6557 44M96.1721 66H65.4546M63.9546 66H65.4546M93.6557 44H64.9546M35.5507 109H94.7299M35.5507 109L30.5254 115M94.7299 109L99.615 115M30.5254 115H99.615" stroke="white" stroke-width="1.33"/>
<circle cx="45.5" cy="77.5" r="4.835" stroke="white" stroke-width="1.33"/>
<circle cx="84.5" cy="77.5" r="4.835" stroke="white" stroke-width="1.33"/>
<rect x="53.665" y="30.665" width="22.67" height="5.67" rx="2.835" stroke="white" stroke-width="1.33"/>
</svg>
