<svg width="95" height="95" viewBox="0 0 95 95" fill="none" xmlns="http://www.w3.org/2000/svg">
<line x1="94.5" x2="94.5" y2="95" stroke="white"/>
<line x1="0.5" y1="1" x2="0.5" y2="95" stroke="white"/>
<line y1="0.5" x2="94" y2="0.5" stroke="white"/>
<line y1="94.5" x2="94" y2="94.5" stroke="white"/>
<line x1="47.5" y1="1" x2="47.5" y2="95" stroke="white"/>
<line x1="33.5" y1="1" x2="33.5" y2="94" stroke="white"/>
<line x1="61.5" y1="94" x2="61.5" y2="1" stroke="white"/>
<line x1="44.5933" y1="10.5" x2="50.4068" y2="10.5" stroke="white"/>
<line x1="42.6549" y1="12.245" x2="45.1464" y2="10.584" stroke="white"/>
<line y1="-0.5" x2="2.99443" y2="-0.5" transform="matrix(-0.83205 -0.5547 -0.5547 0.83205 52.0679 12.661)" stroke="white"/>
<line x1="42.1018" y1="12.161" x2="53.7289" y2="12.161" stroke="white"/>
<line x1="36.9814" y1="13.8413" x2="42.795" y2="12.1802" stroke="white"/>
<line x1="36.6188" y1="15.983" x2="36.6188" y2="13.4915" stroke="white"/>
<line x1="43.7628" y1="14.6525" x2="52.0679" y2="14.6525" stroke="white"/>
<line x1="37.0636" y1="15.4861" x2="44.5381" y2="14.6556" stroke="white"/>
<line y1="-0.5" x2="6.04618" y2="-0.5" transform="matrix(-0.961524 -0.274721 -0.274721 0.961524 58.7119 14.322)" stroke="white"/>
<line y1="-0.5" x2="2.49152" y2="-0.5" transform="matrix(0 -1 -1 0 58.7119 15.983)" stroke="white"/>
<line y1="-0.5" x2="7.52056" y2="-0.5" transform="matrix(-0.993884 -0.110432 -0.110432 0.993884 58.7119 15.983)" stroke="white"/>
<line x1="36.6418" y1="15.5061" x2="24.1842" y2="27.9637" stroke="white"/>
<line x1="70.8159" y1="27.9637" x2="58.3583" y2="15.5061" stroke="white"/>
<line x1="30.4272" y1="21.2988" x2="47.8678" y2="19.6378" stroke="white"/>
<line x1="47.1322" y1="19.6378" x2="64.5729" y2="21.2988" stroke="white"/>
<line x1="24.6611" y1="27.9407" x2="71.1695" y2="27.9407" stroke="white"/>
<line x1="36.6188" y1="84.9151" x2="36.6188" y2="82.4236" stroke="white"/>
<line x1="38.2798" y1="85.7456" x2="38.2798" y2="82.4236" stroke="white"/>
<line x1="37.9492" y1="85.4151" x2="36.2882" y2="85.4151" stroke="white"/>
<line y1="-0.5" x2="2.49152" y2="-0.5" transform="matrix(0 -1 -1 0 57.8813 84.9151)" stroke="white"/>
<line y1="-0.5" x2="3.32203" y2="-0.5" transform="matrix(0 -1 -1 0 56.2203 85.7456)" stroke="white"/>
<line y1="-0.5" x2="1.66101" y2="-0.5" transform="matrix(1 0 0 -1 57.0509 84.9151)" stroke="white"/>
<line x1="32.1356" y1="81.9236" x2="62.8644" y2="81.9236" stroke="white"/>
<line x1="32.5374" y1="81.8503" x2="30.0459" y2="77.6978" stroke="white"/>
<line x1="64.9541" y1="77.6978" x2="62.4626" y2="81.8503" stroke="white"/>
<line x1="26.3221" y1="86.0761" x2="68.678" y2="86.0761" stroke="white"/>
<line x1="24.3306" y1="27.6101" x2="24.3306" y2="43.3897" stroke="white"/>
<line x1="70.839" y1="27.6101" x2="70.839" y2="43.3897" stroke="white"/>
<path d="M23 42.9868L71.5847 42.9858" stroke="white"/>
<line x1="23.0001" y1="45.3812" x2="72" y2="45.3812" stroke="white"/>
<line x1="23.5001" y1="43.3897" x2="23.5001" y2="45.0507" stroke="white"/>
<line x1="71.6694" y1="42.5592" x2="71.6694" y2="45.0507" stroke="white"/>
<line x1="26.8221" y1="27.6101" x2="26.8221" y2="42.5592" stroke="white"/>
<line x1="68.3474" y1="27.6101" x2="68.3474" y2="42.5592" stroke="white"/>
<line x1="24.6611" y1="64.6525" x2="23.0001" y2="64.6525" stroke="white"/>
<line x1="23.5001" y1="64.983" x2="23.5001" y2="79.9321" stroke="white"/>
<line y1="-0.5" x2="1.66101" y2="-0.5" transform="matrix(1 0 0 -1 70.339 64.1525)" stroke="white"/>
<line x1="71.6696" y1="64.983" x2="71.6696" y2="79.9321" stroke="white"/>
<line x1="23.4771" y1="79.5785" x2="25.1381" y2="77.9175" stroke="white"/>
<line x1="27.1527" y1="77.9406" x2="24.6612" y2="77.9406" stroke="white"/>
<line y1="-0.5" x2="2.34903" y2="-0.5" transform="matrix(-0.707107 -0.707107 -0.707107 0.707107 71.1696 79.9321)" stroke="white"/>
<path d="M67.8475 77.8558H70.3391" stroke="white"/>
<line x1="24.3307" y1="45.8813" x2="24.3307" y2="64.1524" stroke="white"/>
<line x1="70.839" y1="45.8813" x2="70.839" y2="64.1524" stroke="white"/>
<line x1="25.9917" y1="59.1694" x2="25.9917" y2="78.271" stroke="white"/>
<line x1="69.178" y1="59.1694" x2="69.178" y2="78.271" stroke="white"/>
<line x1="26.3221" y1="77.7711" x2="68.678" y2="77.7711" stroke="white"/>
<line x1="26.3146" y1="68.0677" x2="69.0075" y2="68.0677" stroke="white"/>
<line x1="24.6611" y1="59.4999" x2="70.339" y2="59.4999" stroke="white"/>
<line x1="29.6442" y1="77.9371" x2="65.356" y2="77.9371" stroke="white"/>
<line x1="25.9917" y1="60.8304" x2="25.9917" y2="64.9829" stroke="white"/>
<line x1="69.178" y1="60.8304" x2="69.178" y2="64.9829" stroke="white"/>
<line x1="34.2946" y1="60.83" x2="34.2946" y2="64.9826" stroke="white"/>
<line x1="26.3199" y1="64.4826" x2="33.7945" y2="64.4826" stroke="white"/>
<line x1="26.3199" y1="61.33" x2="33.7945" y2="61.33" stroke="white"/>
<line x1="60.87" y1="60.83" x2="60.87" y2="64.9826" stroke="white"/>
<line x1="61.2004" y1="64.4826" x2="68.675" y2="64.4826" stroke="white"/>
<line x1="61.2004" y1="61.1605" x2="68.675" y2="61.1605" stroke="white"/>
<line x1="49.2427" y1="34.2531" x2="49.2427" y2="38.4056" stroke="white"/>
<line x1="66.6832" y1="34.2531" x2="66.6832" y2="38.4056" stroke="white"/>
<line x1="50.4037" y1="39.5666" x2="65.3528" y2="39.5666" stroke="white"/>
<line x1="49.0962" y1="38.052" x2="50.7572" y2="39.713" stroke="white"/>
<line x1="64.9992" y1="39.713" x2="66.6602" y2="38.052" stroke="white"/>
<line x1="66.5138" y1="34.2531" x2="66.5138" y2="30.6937" stroke="white"/>
<line x1="49.0731" y1="34.2531" x2="49.0731" y2="30.6937" stroke="white"/>
<line x1="65.3528" y1="29.77" x2="50.4037" y2="29.77" stroke="white"/>
<line y1="-0.5" x2="2.18768" y2="-0.5" transform="matrix(-0.759257 -0.650791 0.759257 -0.650791 67.0138 30.6937)" stroke="white"/>
<line y1="-0.5" x2="2.18768" y2="-0.5" transform="matrix(-0.759257 0.650791 -0.759257 -0.650791 50.4037 29.27)" stroke="white"/>
<line x1="28.48" y1="34.2531" x2="28.48" y2="38.4056" stroke="white"/>
<line x1="45.9207" y1="34.2531" x2="45.9207" y2="38.4056" stroke="white"/>
<line x1="29.641" y1="39.5666" x2="44.5901" y2="39.5666" stroke="white"/>
<line x1="28.3335" y1="38.052" x2="29.9945" y2="39.713" stroke="white"/>
<line x1="44.2365" y1="39.713" x2="45.8975" y2="38.052" stroke="white"/>
<line x1="45.7511" y1="34.2531" x2="45.7511" y2="30.6937" stroke="white"/>
<line x1="28.3104" y1="34.2531" x2="28.3104" y2="30.6937" stroke="white"/>
<line x1="44.5901" y1="29.77" x2="29.641" y2="29.77" stroke="white"/>
<line y1="-0.5" x2="2.18768" y2="-0.5" transform="matrix(-0.759257 -0.650791 0.759257 -0.650791 46.2511 30.6937)" stroke="white"/>
<line y1="-0.5" x2="2.18768" y2="-0.5" transform="matrix(-0.759257 0.650791 -0.759257 -0.650791 29.641 29.27)" stroke="white"/>
</svg>
