<svg width="94" height="94" viewBox="0 0 94 94" fill="none" xmlns="http://www.w3.org/2000/svg">
<circle cx="47" cy="47" r="46.5" stroke="white"/>
<line x1="44.5933" y1="10.5" x2="50.4068" y2="10.5" stroke="white"/>
<line x1="42.6549" y1="12.245" x2="45.1464" y2="10.584" stroke="white"/>
<line y1="-0.5" x2="2.99443" y2="-0.5" transform="matrix(-0.83205 -0.5547 -0.5547 0.83205 52.0679 12.661)" stroke="white"/>
<line x1="42.1018" y1="12.161" x2="53.7289" y2="12.161" stroke="white"/>
<line x1="36.9814" y1="13.8413" x2="42.795" y2="12.1802" stroke="white"/>
<line x1="36.6188" y1="15.983" x2="36.6188" y2="13.4915" stroke="white"/>
<line x1="43.7628" y1="14.6525" x2="52.0679" y2="14.6525" stroke="white"/>
<line x1="37.0636" y1="15.4861" x2="44.5381" y2="14.6556" stroke="white"/>
<line y1="-0.5" x2="6.04618" y2="-0.5" transform="matrix(-0.961524 -0.274721 -0.274721 0.961524 58.7119 14.322)" stroke="white"/>
<line y1="-0.5" x2="2.49152" y2="-0.5" transform="matrix(0 -1 -1 0 58.7119 15.983)" stroke="white"/>
<line y1="-0.5" x2="7.52056" y2="-0.5" transform="matrix(-0.993884 -0.110432 -0.110432 0.993884 58.7119 15.983)" stroke="white"/>
<line x1="36.6418" y1="15.5061" x2="24.1842" y2="27.9637" stroke="white"/>
<line x1="70.8159" y1="27.9637" x2="58.3583" y2="15.5061" stroke="white"/>
<line x1="30.4272" y1="21.2988" x2="47.8678" y2="19.6378" stroke="white"/>
<line x1="47.1322" y1="19.6378" x2="64.5729" y2="21.2988" stroke="white"/>
<line x1="24.6611" y1="27.9407" x2="71.1695" y2="27.9407" stroke="white"/>
<line x1="44.5933" y1="27.1101" x2="50.4068" y2="27.1101" stroke="white"/>
<line x1="43.4323" y1="20.1356" x2="43.4323" y2="23.4576" stroke="white"/>
<line x1="51.7373" y1="20.1356" x2="51.7373" y2="23.4576" stroke="white"/>
<line x1="43.3965" y1="23.2719" x2="45.0575" y2="27.4244" stroke="white"/>
<line x1="49.9426" y1="27.4245" x2="51.6035" y2="23.2719" stroke="white"/>
<line x1="26.6526" y1="79.9321" x2="26.6526" y2="78.2711" stroke="white"/>
<line x1="31.3052" y1="79.6016" x2="27.1526" y2="79.6016" stroke="white"/>
<line x1="29.9746" y1="83.2541" x2="29.9746" y2="79.9321" stroke="white"/>
<line x1="29.6442" y1="83.5846" x2="32.9662" y2="83.5846" stroke="white"/>
<line x1="32.1356" y1="82.7541" x2="32.9661" y2="82.7541" stroke="white"/>
<line x1="36.6187" y1="84.9151" x2="36.6187" y2="82.4236" stroke="white"/>
<line x1="38.2797" y1="85.7456" x2="38.2797" y2="82.4236" stroke="white"/>
<line x1="37.9492" y1="85.4151" x2="36.2882" y2="85.4151" stroke="white"/>
<line y1="-0.5" x2="1.66101" y2="-0.5" transform="matrix(0 -1 -1 0 67.8474 79.9321)" stroke="white"/>
<line x1="63.6948" y1="79.4321" x2="67.8474" y2="79.4321" stroke="white"/>
<line y1="-0.5" x2="3.32203" y2="-0.5" transform="matrix(0 -1 -1 0 64.5254 83.2541)" stroke="white"/>
<line y1="-0.5" x2="3.32203" y2="-0.5" transform="matrix(-1 0 0 1 65.356 84.0846)" stroke="white"/>
<line y1="-0.5" x2="0.830507" y2="-0.5" transform="matrix(-1 0 0 1 62.8644 83.2541)" stroke="white"/>
<line y1="-0.5" x2="2.49152" y2="-0.5" transform="matrix(0 -1 -1 0 57.8813 84.9151)" stroke="white"/>
<line y1="-0.5" x2="3.32203" y2="-0.5" transform="matrix(0 -1 -1 0 56.2203 85.7456)" stroke="white"/>
<line y1="-0.5" x2="1.66101" y2="-0.5" transform="matrix(1 0 0 -1 57.0508 84.9151)" stroke="white"/>
<line x1="32.1356" y1="81.9236" x2="62.8644" y2="81.9236" stroke="white"/>
<line x1="32.5374" y1="81.8503" x2="30.0459" y2="77.6978" stroke="white"/>
<line x1="64.9541" y1="77.6978" x2="62.4626" y2="81.8503" stroke="white"/>
<line x1="34.0026" y1="86.2881" x2="61.0039" y2="86.5" stroke="white"/>
<path d="M23 42.9868L71.5847 42.9858" stroke="white"/>
<line x1="23.0001" y1="45.3812" x2="72" y2="45.3812" stroke="white"/>
<line x1="24.3306" y1="27.6101" x2="24.3306" y2="43.3897" stroke="white"/>
<line x1="70.839" y1="27.6101" x2="70.839" y2="43.3897" stroke="white"/>
<line x1="49.2458" y1="34.2542" x2="49.2458" y2="38.4067" stroke="white"/>
<line x1="66.6864" y1="34.2542" x2="66.6864" y2="38.4067" stroke="white"/>
<line x1="50.4069" y1="39.5677" x2="65.356" y2="39.5677" stroke="white"/>
<line x1="49.0994" y1="38.0531" x2="50.7604" y2="39.7141" stroke="white"/>
<line x1="65.0024" y1="39.7141" x2="66.6634" y2="38.0531" stroke="white"/>
<line x1="66.517" y1="34.2542" x2="66.517" y2="30.6948" stroke="white"/>
<line x1="49.0763" y1="34.2542" x2="49.0763" y2="30.6948" stroke="white"/>
<line x1="65.356" y1="29.7711" x2="50.4068" y2="29.7711" stroke="white"/>
<line y1="-0.5" x2="2.18768" y2="-0.5" transform="matrix(-0.759257 -0.650791 0.759257 -0.650791 67.017 30.6948)" stroke="white"/>
<line y1="-0.5" x2="2.18768" y2="-0.5" transform="matrix(-0.759257 0.650791 -0.759257 -0.650791 50.4069 29.2711)" stroke="white"/>
<line x1="28.4832" y1="34.2542" x2="28.4832" y2="38.4067" stroke="white"/>
<line x1="45.9238" y1="34.2542" x2="45.9238" y2="38.4067" stroke="white"/>
<line x1="29.6442" y1="39.5677" x2="44.5933" y2="39.5677" stroke="white"/>
<line x1="28.3367" y1="38.0531" x2="29.9977" y2="39.7141" stroke="white"/>
<line x1="44.2397" y1="39.7141" x2="45.9007" y2="38.0531" stroke="white"/>
<line x1="45.7543" y1="34.2542" x2="45.7543" y2="30.6948" stroke="white"/>
<line x1="28.3136" y1="34.2542" x2="28.3136" y2="30.6948" stroke="white"/>
<line x1="44.5933" y1="29.7711" x2="29.6441" y2="29.7711" stroke="white"/>
<line y1="-0.5" x2="2.18768" y2="-0.5" transform="matrix(-0.759257 -0.650791 0.759257 -0.650791 46.2543 30.6948)" stroke="white"/>
<line y1="-0.5" x2="2.18768" y2="-0.5" transform="matrix(-0.759257 0.650791 -0.759257 -0.650791 29.6442 29.2711)" stroke="white"/>
<line x1="23.5001" y1="43.3897" x2="23.5001" y2="45.0507" stroke="white"/>
<line x1="71.6694" y1="42.5592" x2="71.6694" y2="45.0507" stroke="white"/>
<line x1="26.8221" y1="27.6101" x2="26.8221" y2="42.5592" stroke="white"/>
<line x1="68.3474" y1="27.6101" x2="68.3474" y2="42.5592" stroke="white"/>
<line x1="24.6611" y1="64.6525" x2="23.0001" y2="64.6525" stroke="white"/>
<line x1="23.5001" y1="64.983" x2="23.5001" y2="79.9321" stroke="white"/>
<line y1="-0.5" x2="1.66101" y2="-0.5" transform="matrix(1 0 0 -1 70.339 64.1525)" stroke="white"/>
<line x1="71.6696" y1="64.983" x2="71.6696" y2="79.9321" stroke="white"/>
<line x1="23.4771" y1="79.5785" x2="25.1381" y2="77.9175" stroke="white"/>
<line x1="27.1527" y1="77.9406" x2="24.6612" y2="77.9406" stroke="white"/>
<line y1="-0.5" x2="2.34903" y2="-0.5" transform="matrix(-0.707107 -0.707107 -0.707107 0.707107 71.1696 79.9321)" stroke="white"/>
<path d="M67.8475 77.8558H70.3391" stroke="white"/>
<line x1="24.3307" y1="45.8813" x2="24.3307" y2="64.1524" stroke="white"/>
<line x1="70.839" y1="45.8813" x2="70.839" y2="64.1524" stroke="white"/>
<line x1="34.2968" y1="60.8304" x2="34.2968" y2="64.9829" stroke="white"/>
<line x1="26.3221" y1="64.483" x2="33.7967" y2="64.483" stroke="white"/>
<line x1="26.3221" y1="61.1609" x2="33.7967" y2="61.1609" stroke="white"/>
<line x1="60.8729" y1="60.8304" x2="60.8729" y2="64.9829" stroke="white"/>
<line x1="61.2034" y1="64.483" x2="68.6779" y2="64.483" stroke="white"/>
<line x1="61.2034" y1="61.1609" x2="68.6779" y2="61.1609" stroke="white"/>
<line x1="25.9917" y1="59.1694" x2="25.9917" y2="78.271" stroke="white"/>
<line x1="69.178" y1="59.1694" x2="69.178" y2="78.271" stroke="white"/>
<line x1="26.3221" y1="77.7711" x2="68.678" y2="77.7711" stroke="white"/>
<line x1="26.322" y1="68.5677" x2="69.0001" y2="68.5677" stroke="white"/>
<line x1="24.6611" y1="59.4999" x2="70.339" y2="59.4999" stroke="white"/>
<line x1="29.6442" y1="77.9371" x2="65.356" y2="77.9371" stroke="white"/>
<line x1="25.9917" y1="60.8304" x2="25.9917" y2="64.9829" stroke="white"/>
<line x1="69.178" y1="60.8304" x2="69.178" y2="64.9829" stroke="white"/>
<line x1="30.1756" y1="83.4682" x2="22.1756" y2="86.4682" stroke="white"/>
<line x1="71.803" y1="86.4596" x2="64.803" y2="83.4596" stroke="white"/>
</svg>
