<svg width="130" height="130" viewBox="0 0 130 130" fill="none" xmlns="http://www.w3.org/2000/svg">
<g clip-path="url(#clip0_113_94)">
<path d="M27.0209 88.3843H29.5195V77.8471C29.5195 72.5083 36.1824 71.4077 39.5139 71.5248V27.9711C39.5139 25.9486 40.6097 24.5462 42.0125 23.6085C43.5333 22.5921 45.415 22.1218 46.6528 22H64.6571H82.3472C83.585 22.1218 85.4667 22.5921 86.9875 23.6085C88.3903 24.5462 89.4861 25.9486 89.4861 27.9711V40.6157V71.5248C92.8176 71.4077 99.4805 72.5083 99.4805 77.8471V88.3843H101.979M27.0209 88.3843C26.9019 91.1942 27.235 96.814 29.5195 96.814M27.0209 88.3843V1M29.5195 96.814H34.8736H44.3327H66.6416M29.5195 96.814H129.5H99.4805M29.5195 96.814H0M64.5 38.5V38.5083M64.5 38.5L0 130M64.5 38.5L129.5 130M101.979 88.3843C102.098 91.1942 101.765 96.814 99.4805 96.814M101.979 88.3843V1M99.4805 96.814H94.1264H84.6673M99.4805 96.814H84.6673M84.6673 96.814H62.3583M64.5 38.5083V55.0165V130M64.5 38.5083L64.8569 1" stroke="white" stroke-width="1.33" stroke-linecap="square" stroke-linejoin="round"/>
</g>
<rect x="0.5" y="0.5" width="129" height="129" stroke="white"/>
<defs>
<clipPath id="clip0_113_94">
<rect width="130" height="130" fill="white"/>
</clipPath>
</defs>
</svg>
