<svg width="130" height="130" viewBox="0 0 130 130" fill="none" xmlns="http://www.w3.org/2000/svg">
<g clip-path="url(#clip0_113_113)">
<path d="M64.8569 21.5H46.6528C45.415 21.6218 43.5333 22.0921 42.0125 23.1085C40.6097 24.0462 39.5139 25.4486 39.5139 27.4711V40.1157V52.0579V71.0248M39.5139 71.0248C36.1824 70.9077 29.5195 72.0083 29.5195 77.3471V87.8843M39.5139 71.0248H43.0834H47.7236V65.405C47.9616 63.2975 49.5797 59.0826 54.1486 59.0826H64.8569M29.5195 87.8843H27.0209M29.5195 87.8843H54.1486M66.6416 87.8843H54.1486M27.0209 87.8843C26.9019 90.6942 27.235 96.314 29.5195 96.314H34.8736M27.0209 87.8843H1M27.0209 87.8843V71.0248V21.5M34.8736 96.314V102.988C35.2306 104.158 36.6583 106.5 39.5139 106.5M34.8736 96.314H44.3327M39.5139 106.5C42.3695 106.5 43.9162 104.158 44.3327 102.988V96.314M39.5139 106.5H89.4861M39.5139 106.5H1M44.3327 96.314H66.6416M64.1431 21.5H82.3472C83.585 21.6218 85.4667 22.0921 86.9875 23.1085C88.3903 24.0462 89.4861 25.4486 89.4861 27.4711V40.1157V52.0579V71.0248M64.1431 21.5H27.0209M64.1431 21.5H101.979M89.4861 71.0248C92.8176 70.9077 99.4805 72.0083 99.4805 77.3471V87.8843M89.4861 71.0248H85.9166H81.2764V65.405C81.0384 63.2975 79.4203 59.0826 74.8514 59.0826H64.1431M99.4805 87.8843H101.979M99.4805 87.8843H74.8514M62.3583 87.8843H74.8514M101.979 87.8843C102.098 90.6942 101.765 96.314 99.4805 96.314H94.1264M101.979 87.8843H129M101.979 87.8843V21.5M94.1264 96.314V102.988C93.7694 104.158 92.3417 106.5 89.4861 106.5M94.1264 96.314H84.6673M89.4861 106.5C86.6305 106.5 85.0838 104.158 84.6673 102.988V96.314M89.4861 106.5H129M84.6673 96.314H62.3583M54.1486 87.8843V76.6446C54.1347 75.708 55.1105 73.8347 59.125 73.8347C63.1394 73.8347 68.6504 73.8347 70.9041 73.8347C72.2199 73.9518 74.8514 74.6777 74.8514 76.6446C74.8514 78.6116 74.8514 84.9573 74.8514 87.8843M101.979 0V21.5M27.0209 0V21.5" stroke="white" stroke-width="1.33" stroke-linecap="square" stroke-linejoin="round"/>
</g>
<rect x="0.5" y="0.5" width="129" height="129" stroke="white"/>
<defs>
<clipPath id="clip0_113_113">
<rect width="130" height="130" fill="white"/>
</clipPath>
</defs>
</svg>
