<svg width="130" height="130" viewBox="0 0 130 130" fill="none" xmlns="http://www.w3.org/2000/svg">
<path d="M64.8569 22H46.6528C45.415 22.1218 43.5333 22.5921 42.0125 23.6085M39.5139 71.5248C36.1824 71.4077 29.5195 72.5083 29.5195 77.8471V88.3843M39.5139 71.5248H43.0834M39.5139 71.5248V52.5579V40.6157V27.9711C39.5139 25.9486 40.6097 24.5462 42.0125 23.6085M29.5195 88.3843H27.0209M29.5195 88.3843H54.1486M66.6416 88.3843H54.1486M27.0209 88.3843C26.9019 91.1942 27.235 96.814 29.5195 96.814H34.8736M27.0209 88.3843H4.5M27.0209 88.3843V71.5248V16M43.0834 71.5248H47.7236V65.905C47.9616 63.7975 49.5797 59.5826 54.1486 59.5826H64.8569M43.0834 71.5248L44.3327 55.0165M42.0125 23.6085L45.582 38.5083M45.582 38.5083L44.3327 55.0165M45.582 38.5083H64.5M45.582 38.5083H6M64.8569 38.5083H64.5M44.3327 55.0165H64.5M44.3327 55.0165H1H84.6673M64.8569 55.0165H64.5M34.8736 96.814V103.488C35.2306 104.658 36.6583 107 39.5139 107M34.8736 96.814H44.3327M39.5139 107C42.3695 107 43.9162 104.658 44.3327 103.488V96.814M39.5139 107H89.4861M39.5139 107H16M44.3327 96.814H66.6416M64.1431 22H82.3472C83.585 22.1218 85.4667 22.5921 86.9875 23.6085M89.4861 71.5248C92.8176 71.4077 99.4805 72.5083 99.4805 77.8471V88.3843M89.4861 71.5248H85.9166M89.4861 71.5248V52.5579V40.6157V27.9711C89.4861 25.9486 88.3903 24.5462 86.9875 23.6085M99.4805 88.3843H101.979M99.4805 88.3843H74.8514M62.3583 88.3843H74.8514M101.979 88.3843C102.098 91.1942 101.765 96.814 99.4805 96.814H94.1264M101.979 88.3843H125.5M101.979 88.3843V16M85.9166 71.5248H81.2764V65.905C81.0384 63.7975 79.4203 59.5826 74.8514 59.5826H64.1431M85.9166 71.5248L84.6673 55.0165M86.9875 23.6085L83.418 38.5083M83.418 38.5083L84.6673 55.0165M83.418 38.5083H64.5M83.418 38.5083H124M64.1431 38.5083H64.5M84.6673 55.0165H64.5M84.6673 55.0165H129M64.1431 55.0165H64.5M94.1264 96.814V103.488C93.7694 104.658 92.3417 107 89.4861 107M94.1264 96.814H84.6673M89.4861 107C86.6305 107 85.0838 104.658 84.6673 103.488V96.814M89.4861 107H113.5M84.6673 96.814H62.3583M54.1486 88.3843V77.1446C54.1347 76.208 55.1105 74.3347 59.125 74.3347C63.1394 74.3347 68.6504 74.3347 70.9041 74.3347C72.2199 74.4518 74.8514 75.1777 74.8514 77.1446C74.8514 79.1116 74.8514 85.4573 74.8514 88.3843M64.5 55.0165V38.5083M101.979 13V16M27.0209 13V16M27.0209 16H101.979" stroke="white" stroke-width="1.33" stroke-linecap="square" stroke-linejoin="round"/>
<rect x="0.5" y="0.5" width="129" height="129" rx="64.5" stroke="white"/>
</svg>
