<svg width="130" height="130" viewBox="0 0 130 130" fill="none" xmlns="http://www.w3.org/2000/svg">
<path d="M64.8569 22H46.6528C45.415 22.1218 43.5333 22.5921 42.0125 23.6085M39.5139 71.5248C36.1824 71.4077 29.5195 72.5083 29.5195 77.8471V88.3843M39.5139 71.5248H43.0834M39.5139 71.5248V52.5579M29.5195 88.3843H27.0209C26.9019 91.1942 27.235 96.814 29.5195 96.814H34.8736M29.5195 88.3843H54.1486M66.6417 88.3843H54.1486M43.0834 71.5248H47.7236V65.905C47.9616 63.7975 49.5797 59.5826 54.1486 59.5826H64.8569M43.0834 71.5248L44.3327 55.0165M42.0125 23.6085C40.6097 24.5462 39.5139 25.9486 39.5139 27.9711V40.6157M42.0125 23.6085L45.582 38.5083M45.582 38.5083L44.3327 55.0165M45.582 38.5083H64.5M64.8569 38.5083H64.5M39.5139 40.6157H35.5875C34.8736 40.8499 33.4459 41.8802 33.4459 44.1281V50.4504C33.5648 51.1529 34.1598 52.5579 35.5875 52.5579H39.5139M39.5139 40.6157V52.5579M44.3327 55.0165H64.5M64.8569 55.0165H64.5M34.8736 96.814V103.488C35.0762 104.152 35.6237 105.194 36.5813 105.97M34.8736 96.814H44.3327M44.3327 96.814H66.6417M44.3327 96.814V103.488C43.9162 104.658 42.3695 107 39.5139 107C38.279 107 37.3111 106.562 36.5813 105.97M64.1431 22H82.3472C83.585 22.1218 85.4667 22.5921 86.9875 23.6085M89.4861 71.5248C92.8176 71.4077 99.4805 72.5083 99.4805 77.8471V88.3843M89.4861 71.5248H85.9166M89.4861 71.5248V52.5579M99.4805 88.3843H101.979C102.098 91.1942 101.765 96.814 99.4805 96.814H94.1264M99.4805 88.3843H74.8514M62.3583 88.3843H74.8514M85.9166 71.5248H81.2764V65.905C81.0384 63.7975 79.4203 59.5826 74.8514 59.5826H64.1431M85.9166 71.5248L84.6673 55.0165M86.9875 23.6085C88.3903 24.5462 89.4861 25.9486 89.4861 27.9711V40.6157M86.9875 23.6085L83.418 38.5083M83.418 38.5083L84.6673 55.0165M83.418 38.5083H64.5M64.1431 38.5083H64.5M89.4861 40.6157H93.4125C94.1264 40.8499 95.5541 41.8802 95.5541 44.1281V50.4504C95.4351 51.1529 94.8402 52.5579 93.4125 52.5579H89.4861M89.4861 40.6157V52.5579M84.6673 55.0165H64.5M64.1431 55.0165H64.5M94.1264 96.814V103.488C93.9238 104.152 93.3763 105.194 92.4187 105.97M94.1264 96.814H84.6673M84.6673 96.814H62.3583M84.6673 96.814V103.488C85.0838 104.658 86.6305 107 89.4861 107C90.721 107 91.6889 106.562 92.4187 105.97M54.1486 88.3843V77.1446C54.1347 76.208 55.1105 74.3347 59.125 74.3347C63.1394 74.3347 68.6504 74.3347 70.9041 74.3347C72.2199 74.4518 74.8514 75.1777 74.8514 77.1446C74.8514 79.1116 74.8514 85.4573 74.8514 88.3843M64.5 55.0165V38.5083M36.5813 105.97L25.5 123M92.4187 105.97L101.979 123M64.5 101V107M64.5 111V122" stroke="white" stroke-width="1.33" stroke-linecap="square" stroke-linejoin="round"/>
<rect x="36.665" y="78.665" width="9.67" height="3.67" rx="1.835" stroke="white" stroke-width="1.33"/>
<rect x="-0.665" y="0.665" width="8.67" height="3.67" rx="1.835" transform="matrix(-1 0 0 1 91.67 78)" stroke="white" stroke-width="1.33" stroke-linecap="square"/>
</svg>
