<svg width="1040" height="105" viewBox="0 0 1040 105" fill="none" xmlns="http://www.w3.org/2000/svg">
<g filter="url(#filter0_d_45_245)">
<line x1="357.444" y1="66.4583" x2="364.931" y2="66.4583" stroke="white"/>
<line x1="357.625" y1="66.2777" x2="357.625" y2="64.2361" stroke="white"/>
<line x1="357.444" y1="63.7361" x2="364.25" y2="63.7361" stroke="white"/>
<line x1="363.75" y1="66.2777" x2="363.75" y2="64.2361" stroke="white"/>
<line y1="-0.5" x2="7.48611" y2="-0.5" transform="matrix(-1 0 0 1 396.236 66.9583)" stroke="white"/>
<line y1="-0.5" x2="2.04167" y2="-0.5" transform="matrix(0 -1 -1 0 395.556 66.2777)" stroke="white"/>
<line y1="-0.5" x2="6.80556" y2="-0.5" transform="matrix(-1 0 0 1 396.236 64.2361)" stroke="white"/>
<line y1="-0.5" x2="2.04167" y2="-0.5" transform="matrix(0 -1 -1 0 389.431 66.2777)" stroke="white"/>
<line x1="360.167" y1="69.8611" x2="394.194" y2="69.8611" stroke="white"/>
<line x1="360.167" y1="67.8194" x2="366.972" y2="67.8194" stroke="white"/>
<line x1="359.986" y1="67.6389" x2="359.986" y2="70.3611" stroke="white"/>
<line x1="368.333" y1="67.1389" x2="385.347" y2="67.1389" stroke="white"/>
<line x1="366.814" y1="67.8451" x2="368.856" y2="67.1645" stroke="white"/>
<line y1="-0.5" x2="6.80556" y2="-0.5" transform="matrix(-1 0 0 1 393.514 68.3194)" stroke="white"/>
<line y1="-0.5" x2="2.72222" y2="-0.5" transform="matrix(0 1 1 0 394.194 67.6389)" stroke="white"/>
<line y1="-0.5" x2="2.15211" y2="-0.5" transform="matrix(-0.948683 -0.316228 -0.316228 0.948683 386.708 68.3194)" stroke="white"/>
<line x1="360.167" y1="32.4305" x2="393.514" y2="32.4305" stroke="white"/>
<line x1="360.167" y1="45.3611" x2="393.514" y2="45.3611" stroke="white"/>
<line x1="358.986" y1="43.1389" x2="358.986" y2="35.6527" stroke="white"/>
<line x1="360.4" y1="45.4041" x2="359.039" y2="42.6819" stroke="white"/>
<line x1="359.022" y1="36.1476" x2="360.383" y2="32.7448" stroke="white"/>
<line y1="-0.5" x2="7.48611" y2="-0.5" transform="matrix(0 -1 -1 0 394.195 43.1389)" stroke="white"/>
<line y1="-0.5" x2="3.04354" y2="-0.5" transform="matrix(0.447214 -0.894427 -0.894427 -0.447214 392.833 45.1805)" stroke="white"/>
<line y1="-0.5" x2="3.6649" y2="-0.5" transform="matrix(-0.371391 -0.928477 -0.928477 0.371391 394.195 36.3333)" stroke="white"/>
<line x1="359.486" y1="29.7083" x2="394.195" y2="29.7083" stroke="white"/>
<line x1="361.028" y1="61.5139" x2="361.028" y2="45.1806" stroke="white"/>
<line x1="392.333" y1="61.5139" x2="392.333" y2="45.1806" stroke="white"/>
<line x1="355.403" y1="61.0139" x2="398.278" y2="61.0139" stroke="white"/>
<path d="M359.486 20H394.194" stroke="white"/>
<line x1="393.312" y1="21.898" x2="395.354" y2="28.7035" stroke="white"/>
<line x1="358.327" y1="28.7035" x2="360.368" y2="21.898" stroke="white"/>
<line x1="360.167" y1="21.5417" x2="393.514" y2="21.5417" stroke="white"/>
<line x1="358.625" y1="28.1667" x2="358.625" y2="32.9305" stroke="white"/>
<line x1="395.375" y1="28.1667" x2="395.375" y2="32.9305" stroke="white"/>
<line x1="357.944" y1="33.6111" x2="357.944" y2="60.8333" stroke="white"/>
<line x1="396.056" y1="33.6111" x2="396.056" y2="60.8333" stroke="white"/>
<line x1="355.583" y1="60.8333" x2="355.583" y2="58.7917" stroke="white"/>
<line x1="357.904" y1="54.2247" x2="355.862" y2="58.9886" stroke="white"/>
<path d="M397.938 61.1736V58.7917" stroke="white"/>
<line y1="-0.5" x2="5.18296" y2="-0.5" transform="matrix(0.393919 0.919145 0.919145 -0.393919 396.236 54.0278)" stroke="white"/>
<line x1="357.944" y1="25.3243" x2="357.944" y2="32.9305" stroke="white"/>
<line y1="-0.5" x2="5.70237" y2="-0.5" transform="matrix(-0.358038 0.933707 -0.901878 -0.431992 359.486 20)" stroke="white"/>
<line y1="-0.5" x2="7.60621" y2="-0.5" transform="matrix(0 1 1 0 396.236 25.3243)" stroke="white"/>
<line y1="-0.5" x2="5.70237" y2="-0.5" transform="matrix(0.358038 0.933707 0.901878 -0.431992 394.194 20)" stroke="white"/>
<line x1="355.903" y1="62.1944" x2="355.903" y2="72.4028" stroke="white"/>
<line x1="398.097" y1="62.1944" x2="398.097" y2="72.4028" stroke="white"/>
<path d="M356.424 60.8333V62.875" stroke="white"/>
<line x1="397.417" y1="61.5139" x2="397.417" y2="62.875" stroke="white"/>
<line x1="358.125" y1="71.9028" x2="394.875" y2="71.9028" stroke="white"/>
<line x1="358.306" y1="73.7639" x2="358.306" y2="72.4027" stroke="white"/>
<line x1="394.375" y1="73.7639" x2="394.375" y2="72.4027" stroke="white"/>
<line x1="355.583" y1="73.7639" x2="355.583" y2="72.4027" stroke="white"/>
<line x1="356.083" y1="73.2639" x2="358.806" y2="73.2639" stroke="white"/>
<line x1="358.306" y1="74.4444" x2="358.306" y2="73.7638" stroke="white"/>
<line x1="394.875" y1="74.2639" x2="358.806" y2="74.2639" stroke="white"/>
<line y1="-0.5" x2="1.36111" y2="-0.5" transform="matrix(0 -1 -1 0 397.597 73.7639)" stroke="white"/>
<line y1="-0.5" x2="2.72222" y2="-0.5" transform="matrix(-1 0 0 1 397.597 73.7639)" stroke="white"/>
<line y1="-0.5" x2="0.680556" y2="-0.5" transform="matrix(0 -1 -1 0 394.875 74.4444)" stroke="white"/>
<line x1="343.62" y1="82.6746" x2="355.62" y2="68.6746" stroke="white"/>
<path d="M409.339 84.0465L398 72.5" stroke="white"/>
<line x1="362.65" y1="56.0833" x2="390.614" y2="56.0833" stroke="white"/>
<line x1="362.15" y1="58.3331" x2="362.15" y2="56" stroke="white"/>
<line x1="390.764" y1="58.3331" x2="390.764" y2="56" stroke="white"/>
<line x1="369.153" y1="59.5828" x2="384.111" y2="59.5828" stroke="white"/>
<line y1="-0.5" x2="7.99748" y2="-0.5" transform="matrix(0.975771 0.218794 -0.2685 0.96328 362 58.3331)" stroke="white"/>
<line y1="-0.5" x2="7.99745" y2="-0.5" transform="matrix(0.975758 -0.218852 0.268569 0.96326 383.46 60.0833)" stroke="white"/>
<circle cx="377" cy="50" r="46.5" stroke="white"/>
<line x1="360.347" y1="62.1944" x2="360.347" y2="61.5139" stroke="white"/>
<line x1="393.014" y1="62.1944" x2="393.014" y2="61.5139" stroke="white"/>
<line x1="360.167" y1="62.375" x2="393.514" y2="62.375" stroke="white"/>
<line x1="365.111" y1="66.9583" x2="365.111" y2="62.875" stroke="white"/>
<line x1="357.444" y1="66.4583" x2="364.931" y2="66.4583" stroke="white"/>
<line x1="357.625" y1="66.2777" x2="357.625" y2="64.2361" stroke="white"/>
<line x1="357.444" y1="63.7361" x2="364.25" y2="63.7361" stroke="white"/>
<line x1="363.75" y1="66.2777" x2="363.75" y2="64.2361" stroke="white"/>
<line y1="-0.5" x2="4.08333" y2="-0.5" transform="matrix(0 -1 -1 0 388.069 66.9583)" stroke="white"/>
<line y1="-0.5" x2="7.48611" y2="-0.5" transform="matrix(-1 0 0 1 396.236 66.9583)" stroke="white"/>
<line y1="-0.5" x2="2.04167" y2="-0.5" transform="matrix(0 -1 -1 0 395.556 66.2777)" stroke="white"/>
<line y1="-0.5" x2="6.80556" y2="-0.5" transform="matrix(-1 0 0 1 396.236 64.2361)" stroke="white"/>
<line y1="-0.5" x2="2.04167" y2="-0.5" transform="matrix(0 -1 -1 0 389.431 66.2777)" stroke="white"/>
<line x1="360.167" y1="32.4305" x2="393.514" y2="32.4305" stroke="white"/>
<line x1="360.167" y1="45.3611" x2="393.514" y2="45.3611" stroke="white"/>
<line x1="358.986" y1="43.1389" x2="358.986" y2="35.6527" stroke="white"/>
<line x1="360.4" y1="45.4041" x2="359.039" y2="42.6819" stroke="white"/>
<line x1="359.022" y1="36.1476" x2="360.383" y2="32.7448" stroke="white"/>
<line y1="-0.5" x2="7.48611" y2="-0.5" transform="matrix(0 -1 -1 0 394.194 43.1389)" stroke="white"/>
<line y1="-0.5" x2="3.04354" y2="-0.5" transform="matrix(0.447214 -0.894427 -0.894427 -0.447214 392.833 45.1805)" stroke="white"/>
<line y1="-0.5" x2="3.6649" y2="-0.5" transform="matrix(-0.371391 -0.928477 -0.928477 0.371391 394.194 36.3333)" stroke="white"/>
<line x1="369.014" y1="46.7222" x2="384.667" y2="46.7222" stroke="white"/>
<line x1="369.536" y1="47.016" x2="365.453" y2="45.6549" stroke="white"/>
<line x1="388.228" y1="45.6549" x2="384.144" y2="47.016" stroke="white"/>
<line x1="359.486" y1="29.7083" x2="394.194" y2="29.7083" stroke="white"/>
<line x1="361.028" y1="61.5139" x2="361.028" y2="45.1806" stroke="white"/>
<line x1="392.333" y1="61.5139" x2="392.333" y2="45.1806" stroke="white"/>
<line x1="355.403" y1="61.0139" x2="398.278" y2="61.0139" stroke="white"/>
<path d="M359.486 20H394.194" stroke="white"/>
<line x1="393.312" y1="21.898" x2="395.354" y2="28.7035" stroke="white"/>
<line x1="358.327" y1="28.7035" x2="360.368" y2="21.898" stroke="white"/>
<line x1="360.167" y1="21.5417" x2="393.514" y2="21.5417" stroke="white"/>
<line x1="358.625" y1="28.1667" x2="358.625" y2="32.9305" stroke="white"/>
<line x1="395.375" y1="28.1667" x2="395.375" y2="32.9305" stroke="white"/>
<line x1="357.944" y1="33.6111" x2="357.944" y2="60.8333" stroke="white"/>
<line x1="396.056" y1="33.6111" x2="396.056" y2="60.8333" stroke="white"/>
<line x1="355.583" y1="60.8333" x2="355.583" y2="58.7917" stroke="white"/>
<line x1="357.904" y1="54.2247" x2="355.862" y2="58.9886" stroke="white"/>
<path d="M397.938 61.1736V58.7917" stroke="white"/>
<line y1="-0.5" x2="5.18296" y2="-0.5" transform="matrix(0.393919 0.919145 0.919145 -0.393919 396.236 54.0278)" stroke="white"/>
<line x1="357.944" y1="25.3243" x2="357.944" y2="32.9305" stroke="white"/>
<line y1="-0.5" x2="5.70237" y2="-0.5" transform="matrix(-0.358038 0.933707 -0.901878 -0.431992 359.486 20)" stroke="white"/>
<line y1="-0.5" x2="7.60621" y2="-0.5" transform="matrix(0 1 1 0 396.236 25.3243)" stroke="white"/>
<line y1="-0.5" x2="5.70237" y2="-0.5" transform="matrix(0.358038 0.933707 0.901878 -0.431992 394.194 20)" stroke="white"/>
<line x1="355.903" y1="62.1944" x2="355.903" y2="72.4028" stroke="white"/>
<line x1="398.097" y1="62.1944" x2="398.097" y2="72.4028" stroke="white"/>
<path d="M356.424 60.8333V62.875" stroke="white"/>
<line x1="397.417" y1="61.5139" x2="397.417" y2="62.875" stroke="white"/>
<line x1="358.125" y1="71.9028" x2="394.875" y2="71.9028" stroke="white"/>
<line x1="358.306" y1="73.7639" x2="358.306" y2="72.4027" stroke="white"/>
<line x1="360.167" y1="78.7083" x2="361.528" y2="78.7083" stroke="white"/>
<line x1="356.083" y1="78.7083" x2="357.444" y2="78.7083" stroke="white"/>
<line x1="392.153" y1="78.7083" x2="393.514" y2="78.7083" stroke="white"/>
<line x1="394.375" y1="73.7639" x2="394.375" y2="72.4027" stroke="white"/>
<line y1="-0.5" x2="6.125" y2="-0.5" transform="matrix(0 -1 -1 0 395.556 79.2083)" stroke="white"/>
<line y1="-0.5" x2="4.76389" y2="-0.5" transform="matrix(0 -1 -1 0 392.833 79.2083)" stroke="white"/>
<line y1="-0.5" x2="4.76389" y2="-0.5" transform="matrix(0 -1 -1 0 391.472 79.2083)" stroke="white"/>
<line x1="355.583" y1="73.7639" x2="355.583" y2="72.4027" stroke="white"/>
<line x1="356.083" y1="73.2639" x2="358.806" y2="73.2639" stroke="white"/>
<line x1="358.306" y1="74.4444" x2="358.306" y2="73.7638" stroke="white"/>
<line x1="394.875" y1="74.2639" x2="358.806" y2="74.2639" stroke="white"/>
<line y1="-0.5" x2="1.36111" y2="-0.5" transform="matrix(0 -1 -1 0 397.597 73.7639)" stroke="white"/>
<line y1="-0.5" x2="2.72222" y2="-0.5" transform="matrix(-1 0 0 1 397.597 73.7639)" stroke="white"/>
<line y1="-0.5" x2="0.680556" y2="-0.5" transform="matrix(0 -1 -1 0 394.875 74.4444)" stroke="white"/>
<line x1="357.625" y1="79.2083" x2="357.625" y2="73.0833" stroke="white"/>
<line x1="355.583" y1="79.2083" x2="355.583" y2="73.0833" stroke="white"/>
<line x1="360.347" y1="79.2083" x2="360.347" y2="74.4444" stroke="white"/>
<line x1="361.708" y1="79.2083" x2="361.708" y2="74.4444" stroke="white"/>
<line x1="365.792" y1="79.2083" x2="365.792" y2="74.4444" stroke="white"/>
<line y1="-0.5" x2="6.125" y2="-0.5" transform="matrix(0 -1 -1 0 397.597 79.2083)" stroke="white"/>
<line y1="-0.5" x2="4.76389" y2="-0.5" transform="matrix(0 -1 -1 0 387.389 79.2083)" stroke="white"/>
<line x1="396.236" y1="78.7083" x2="397.597" y2="78.7083" stroke="white"/>
<line x1="353.542" y1="38.375" x2="353.542" y2="34.9722" stroke="white"/>
<line x1="357.444" y1="33.1111" x2="359.486" y2="33.1111" stroke="white"/>
<line x1="394.194" y1="33.1111" x2="396.236" y2="33.1111" stroke="white"/>
<line x1="352.681" y1="33.1111" x2="357.444" y2="33.1111" stroke="white"/>
<line x1="352.181" y1="36.3333" x2="352.181" y2="32.9306" stroke="white"/>
<line x1="355.583" y1="36.3333" x2="355.583" y2="33.6111" stroke="white"/>
<line x1="352.681" y1="35.8333" x2="355.403" y2="35.8333" stroke="white"/>
<line x1="352.5" y1="37.0139" x2="352.5" y2="43.8194" stroke="white"/>
<line x1="355.903" y1="37.0139" x2="355.903" y2="43.8194" stroke="white"/>
<line x1="352.681" y1="43.3195" x2="355.403" y2="43.3195" stroke="white"/>
<line x1="353" y1="37.5" x2="355.722" y2="37.5" stroke="white"/>
<line x1="355.403" y1="46.0417" x2="357.444" y2="46.0417" stroke="white"/>
<line x1="354.489" y1="43.5959" x2="355.85" y2="46.3181" stroke="white"/>
<line x1="353.542" y1="37.6945" x2="353.542" y2="35.6528" stroke="white"/>
<line x1="395.556" y1="33.1111" x2="397.597" y2="33.1111" stroke="white"/>
<line x1="399.285" y1="35.3258" x2="397.244" y2="33.2841" stroke="white"/>
<line x1="398.278" y1="35.1528" x2="401" y2="35.1528" stroke="white"/>
<line x1="398.278" y1="41.9583" x2="401" y2="41.9583" stroke="white"/>
<line x1="398.097" y1="34.9722" x2="398.097" y2="42.4583" stroke="white"/>
<line x1="401.5" y1="34.9722" x2="401.5" y2="42.4583" stroke="white"/>
<line x1="396.236" y1="46.0417" x2="398.278" y2="46.0417" stroke="white"/>
<line x1="400.086" y1="42.0014" x2="398.044" y2="46.0847" stroke="white"/>
</g>
<line y1="2.5" x2="1029" y2="2.5" stroke="#800080"/>
<line x1="11.0002" y1="95.9509" x2="1040" y2="95.9509" stroke="#800080"/>
<defs>
<filter id="filter0_d_45_245" x="325" y="0" width="103" height="105" filterUnits="userSpaceOnUse" color-interpolation-filters="sRGB">
<feFlood flood-opacity="0" result="BackgroundImageFix"/>
<feColorMatrix in="SourceAlpha" type="matrix" values="0 0 0 0 0 0 0 0 0 0 0 0 0 0 0 0 0 0 127 0" result="hardAlpha"/>
<feOffset dy="4"/>
<feGaussianBlur stdDeviation="2"/>
<feComposite in2="hardAlpha" operator="out"/>
<feColorMatrix type="matrix" values="0 0 0 0 0 0 0 0 0 0 0 0 0 0 0 0 0 0 0.25 0"/>
<feBlend mode="normal" in2="BackgroundImageFix" result="effect1_dropShadow_45_245"/>
<feBlend mode="normal" in="SourceGraphic" in2="effect1_dropShadow_45_245" result="shape"/>
</filter>
</defs>
</svg>
